HIERARCHY
ROOT Hips
{
  OFFSET 13.6774 106.653 -34.4427
  CHANNELS 6 Xposition Yposition Zposition Zrotation Xrotation Yrotation
  JOINT ToSpine
  {
    OFFSET -2.69724 7.43032 -0.144315
    CHANNELS 3 Zrotation Xrotation Yrotation
    JOINT Spine
    {
      OFFSET -0.0310711 10.7595 1.96963
      CHANNELS 3 Zrotation Xrotation Yrotation
      JOINT Spine1
      {
        OFFSET 19.9056 3.91189 0.764692
        CHANNELS 3 Zrotation Xrotation Yrotation
        JOINT Neck
        {
          OFFSET 25.9749 7.03908 -0.130764
          CHANNELS 3 Zrotation Xrotation Yrotation
          JOINT Head
          {
            OFFSET 9.52751 0.295786 -0.907742
            CHANNELS 3 Zrotation Xrotation Yrotation
            End Site
            {
              OFFSET 16.4037 0.713936 2.7358
            }
          }
        }
        JOINT LeftShoulder
        {
          OFFSET 17.7449 4.33886 11.7777
          CHANNELS 3 Zrotation Xrotation Yrotation
          JOINT LeftArm
          {
            OFFSET 0.911315 1.27913 9.80584
            CHANNELS 3 Zrotation Xrotation Yrotation
            JOINT LeftForeArm
            {
              OFFSET 28.6126 1.18197 -3.53199
              CHANNELS 3 Zrotation Xrotation Yrotation
              JOINT LeftHand
              {
                OFFSET 27.5088 0.0218783 0.327423
                CHANNELS 3 Zrotation Xrotation Yrotation
                End Site
                {
                  OFFSET 18.6038 -0.000155887 0.382096
                }
              }
            }
          }
        }
        JOINT RightShoulder
        {
          OFFSET 17.1009 2.89543 -12.2328
          CHANNELS 3 Zrotation Xrotation Yrotation
          JOINT RightArm
          {
            OFFSET 1.4228 0.178766 -10.211
            CHANNELS 3 Zrotation Xrotation Yrotation
            JOINT RightForeArm
            {
              OFFSET 28.733 1.87905 2.64907
              CHANNELS 3 Zrotation Xrotation Yrotation
              JOINT RightHand
              {
                OFFSET 27.4588 0.290562 -0.101845
                CHANNELS 3 Zrotation Xrotation Yrotation
                End Site
                {
                  OFFSET 17.8396 -0.255518 -0.000602873
                }
              }
            }
          }
        }
      }
    }
  }
  JOINT LeftUpLeg
  {
    OFFSET -5.61296 -2.22332 -10.2353
    CHANNELS 3 Zrotation Xrotation Yrotation
    JOINT LeftLeg
    {
      OFFSET 2.56703 -44.7417 -7.93097
      CHANNELS 3 Zrotation Xrotation Yrotation
      JOINT LeftFoot
      {
        OFFSET 3.16933 -46.5642 -3.96578
        CHANNELS 3 Zrotation Xrotation Yrotation
        JOINT LeftToeBase
        {
          OFFSET 0.346054 -6.02161 12.8035
          CHANNELS 3 Zrotation Xrotation Yrotation
          End Site
          {
            OFFSET 0.134235 -1.35082 5.13018
          }
        }
      }
    }
  }
  JOINT RightUpLeg
  {
    OFFSET -5.7928 -1.72406 10.6446
    CHANNELS 3 Zrotation Xrotation Yrotation
    JOINT RightLeg
    {
      OFFSET -2.57161 -44.7178 -7.85259
      CHANNELS 3 Zrotation Xrotation Yrotation
      JOINT RightFoot
      {
        OFFSET -3.10148 -46.5936 -4.03391
        CHANNELS 3 Zrotation Xrotation Yrotation
        JOINT RightToeBase
        {
          OFFSET -0.0828122 -6.13587 12.8035
          CHANNELS 3 Zrotation Xrotation Yrotation
          End Site
          {
            OFFSET -0.131328 -1.35082 5.13018
          }
        }
      }
    }
  }
}
MOTION
Frames: 17
Frame Time: 0.03333333333333333
0.0000 93.1000 0.0000 -50.8825 -44.1289 -143.8176 -71.0103 -0.2034 87.8508 85.4210 56.4172 -15.1976 4.7467 2.5098 8.1946 -156.2341 4.1885 -178.6956 -154.3993 42.4674 178.4492 -1.4591 -24.1690 -26.4625 -48.2743 32.4716 -113.9685 -1.4950 -0.2703 -96.4119 -0.0924 0.0630 -0.1292 -0.8537 1.9057 43.2768 -48.6787 -38.9341 102.5319 -16.4614 -14.0921 129.1719 -0.1132 -0.0352 -0.1731 -71.6500 5.4929 111.4351 -0.9298 39.0586 9.2315 -1.7549 -19.1153 -2.0944 9.7307 -19.6393 33.5932 1.4958 22.4988 88.0719 10.5120 69.1025 6.4808 -5.7588 0.4542 -0.2040 -1.1821 -1.3213 2.9525 
0.0000 93.1000 0.0000 -50.8496 -44.3297 -143.7249 -71.0828 -0.2122 87.9793 88.8216 56.9338 -15.0519 4.6049 3.3422 7.8786 -155.2267 5.8266 -178.6936 -151.9313 44.0616 176.8319 -1.4315 -22.6063 -27.1155 -45.7225 36.0501 -113.1536 0.4168 -1.2947 -96.8282 -0.2705 0.1227 0.0245 -1.0091 2.2467 44.2073 -51.2798 -40.7902 97.4270 -15.6412 -13.9226 130.5730 0.0087 -0.4047 -0.3749 -69.7500 5.2737 109.1301 -2.3600 43.1368 6.3679 -0.8157 -19.1707 -2.0805 10.7065 -21.3759 36.5408 3.0795 21.1120 86.8504 12.2485 71.6465 4.8935 -4.6870 -0.1611 -0.1069 -1.4683 -2.7592 6.6320 
0.0000 93.1000 0.0000 -49.7797 -45.3029 -143.0157 -71.1471 0.1325 88.0321 90.7554 57.7861 -15.1392 4.4457 4.7140 7.3686 -152.8584 7.6402 -179.5452 -150.6478 45.3233 175.1888 -1.3381 -22.0323 -26.2025 -45.9048 37.4641 -109.1623 1.2705 -1.0058 -96.6905 -0.1940 0.3409 0.3519 -0.7726 2.7603 44.6159 -53.0584 -41.1703 94.6601 -14.8758 -12.9108 130.5381 -0.1646 -0.1517 -0.0302 -68.9628 5.4032 108.1280 -2.4150 46.3584 4.0480 -1.1208 -18.9939 -2.0098 11.9324 -23.0508 37.2665 2.4123 20.0071 86.8709 12.7350 71.8662 8.2071 -2.6054 -3.9823 -0.3900 0.5697 -2.8272 1.0862 
0.0000 93.1000 0.0000 -47.8288 -47.3337 -140.8725 -71.1203 -0.0108 88.0865 91.7352 58.1267 -15.2073 4.6232 5.0372 7.6050 -153.1705 9.7260 -178.7218 -149.2711 46.3571 173.7357 -1.2205 -21.2864 -25.3564 -50.7204 38.9031 -103.3355 -1.7011 0.1194 -98.4287 0.1346 0.2828 0.0902 -1.0964 2.7521 44.2584 -53.1912 -40.0234 94.3609 -13.5289 -12.0889 129.5979 -0.2253 0.0940 0.1716 -69.3530 5.9455 107.1463 -1.4715 47.0473 2.8945 -1.1352 -19.0183 -2.1439 12.8986 -22.9193 36.9649 2.0204 17.7543 85.7823 14.4452 72.3052 5.4532 -0.8339 -7.1899 -0.0153 -0.7602 0.6690 3.8899 
0.0000 93.1000 0.0000 -45.8334 -49.5454 -139.5751 -71.0519 -0.0563 88.0947 93.8609 58.7017 -16.8065 4.1226 5.4386 7.8780 -153.1490 10.9503 -177.9076 -148.8699 47.4605 174.1955 -1.2384 -20.3124 -23.8516 -57.7004 39.8031 -94.3364 -1.9060 0.3848 -100.7591 0.1765 -0.0728 0.2920 -1.6156 3.0930 44.0374 -54.9806 -37.8050 95.3810 -12.8399 -10.2682 128.4648 -0.0222 0.1843 0.0979 -68.9437 6.4601 106.2246 -2.0340 46.2070 3.6902 -1.0238 -19.8347 -1.9179 13.0133 -23.0083 34.9717 2.0533 15.8589 86.8489 14.4436 73.2255 5.6827 -2.9182 -5.6737 -0.0835 0.1615 -2.8745 0.3174 
0.0000 93.1000 0.0000 -43.7865 -52.0784 -137.5655 -70.9694 0.0760 88.0810 93.8604 58.8546 -15.9697 3.7816 5.9403 8.2962 -151.9254 12.1220 -178.2363 -147.9541 48.3616 173.5315 -0.8604 -18.5422 -21.9516 -65.5617 38.3479 -89.5394 0.3862 -0.9989 -102.8480 -0.1491 -0.0216 0.2653 -1.3647 2.9816 43.2071 -59.9481 -36.2837 93.2841 -13.3231 -10.9558 127.5175 -0.1213 0.3289 0.2423 -70.2362 8.0644 106.9240 -2.0860 45.5906 4.7754 -1.2097 -21.0677 -2.0424 11.9521 -23.1189 33.7248 1.4486 15.5661 87.2408 14.0277 73.4125 3.9099 -2.9819 -7.8410 0.0375 0.2552 -0.8266 -1.7741 
0.0000 93.1000 0.0000 -36.6371 -55.2204 -131.1618 -70.8903 0.4085 88.1659 91.9382 59.8448 -14.3931 4.2121 7.0562 8.7059 -149.9002 13.8698 -177.6909 -147.9641 50.2215 172.1252 -0.3518 -17.4885 -21.0327 -71.8703 36.2197 -88.5261 -1.1365 0.1015 -104.7430 0.0243 0.1847 0.3099 -0.6057 2.7429 43.0449 -65.2479 -35.7762 91.9562 -12.4924 -10.3940 127.5101 -0.1783 0.6429 0.7187 -69.5191 10.2862 105.8507 -1.9341 43.4096 4.1865 -1.0775 -22.3230 -2.3067 10.8493 -21.9553 31.3953 0.2669 13.8808 88.0542 11.8201 72.2349 3.3377 -3.4358 -10.0932 0.4282 0.7495 -1.0782 -5.3262 
0.0000 93.1000 0.0000 -28.8202 -58.5892 -122.0885 -71.0029 0.4429 88.3371 90.9940 60.7688 -12.2485 5.0848 7.4556 8.7754 -148.0039 15.8356 -177.0575 -146.1355 52.1237 171.6067 -0.1048 -16.2813 -19.0810 -77.7706 34.1278 -89.4666 -1.0673 -0.1523 -107.6844 0.0321 0.0952 0.3810 -0.7503 2.7519 42.9757 -72.2168 -34.0046 89.2820 -12.7195 -10.0660 127.5755 -0.0931 0.4617 0.6321 -67.2402 12.4151 104.9990 -2.5932 42.5276 4.9815 -1.0804 -21.3467 -2.3630 10.4345 -21.9566 29.2630 -0.2952 11.0472 88.0492 10.4663 71.1379 1.8840 -4.2778 -13.2696 0.8163 1.5381 -2.1132 -7.0911 
0.0000 93.1000 0.0000 -18.5561 -61.6612 -110.8917 -71.0185 0.2494 88.3066 91.2449 61.1071 -10.2632 5.2308 8.1434 9.2592 -145.9601 17.9092 -178.6384 -144.2713 54.3849 170.4083 -0.2417 -16.1603 -18.0773 -82.3143 32.0951 -91.3963 -0.1211 -1.4636 -109.0162 0.3318 -0.0457 0.5456 -0.9158 2.8865 42.0212 -78.1407 -32.4533 87.5096 -11.4849 -8.9679 127.4771 -0.4636 0.5780 0.7556 -65.2710 13.4175 104.8222 -2.4967 41.3441 5.5050 -1.5547 -21.4817 -2.0859 8.6691 -20.4831 26.0616 -2.2719 7.0014 87.8131 8.5511 68.4295 1.6811 -4.9394 -15.5619 0.7978 1.4057 -7.1040 -12.1208 
0.0000 93.1000 0.0000 -5.7905 -62.8606 -97.8606 -71.0315 0.2072 88.2890 89.1935 61.7036 -9.0393 5.0201 8.2680 11.3687 -144.0161 20.7380 -176.3761 -146.0794 57.3460 171.2316 -0.3260 -15.5420 -18.0264 -86.6931 32.3048 -95.4986 2.0880 -1.2825 -109.0526 0.1759 -0.0206 0.5840 -1.1092 2.9353 40.1893 -85.1230 -31.6324 86.8697 -9.7451 -7.3991 126.6161 -0.2321 0.3131 0.5531 -63.4753 14.2971 105.7295 -2.4509 40.2665 4.6737 -3.8407 -20.0166 -1.8839 8.3110 -19.5372 24.4934 -4.4461 1.7092 86.2226 7.0055 66.7661 1.2467 -6.0745 -16.9453 0.6849 2.0473 -11.3254 -18.9105 
0.0000 93.1000 0.0000 5.9759 -63.8608 -85.0492 -71.1664 0.2791 88.3521 90.3192 62.6257 -8.3036 3.7982 9.2359 11.4678 -142.9716 22.6613 -178.2929 -146.0233 59.4273 171.7222 -0.4050 -15.3798 -17.5325 -90.6286 34.3214 -99.6933 2.6586 -2.2382 -109.8799 0.1997 -0.1630 0.7309 -1.4818 3.4664 40.2585 -92.2330 -29.2926 85.6493 -8.5277 -6.0318 125.5487 -0.0498 0.5339 0.5957 -61.6089 16.1801 107.9401 -2.3235 40.2448 0.8154 -3.5014 -19.2922 -2.0034 8.6765 -19.9730 29.1997 -6.4225 -3.1491 83.8593 6.0120 63.3727 2.3739 -6.3027 -17.4272 0.3823 2.8043 -16.9148 -24.5173 
0.0000 93.1000 0.0000 15.0738 -63.7772 -75.9778 -71.0257 -0.4213 88.4326 93.0252 63.8631 -9.3016 2.8065 10.2215 10.9598 -141.0009 23.9784 -179.9534 -145.7277 60.5976 172.9315 -0.7061 -15.2934 -16.9332 -90.6328 33.9870 -103.9038 2.1538 -2.8166 -111.0693 -0.5308 -0.2761 0.0534 -2.6294 4.0406 38.8820 -97.5393 -27.3219 85.4513 -7.1301 -4.6926 123.5410 0.4934 -0.9080 -0.7036 -60.4015 16.1206 111.7095 -2.4261 41.1113 0.0220 -3.2776 -17.6917 -1.6899 10.0180 -21.5669 29.5087 -9.4730 -8.2792 79.8067 4.9422 60.2142 4.5907 -5.8611 -16.4814 0.6929 1.5147 -20.8894 -22.8174 
0.0000 93.1000 0.0000 22.8789 -64.0036 -67.6479 -71.2016 0.0353 88.2811 94.0559 65.5801 -8.4952 2.4811 12.5462 10.5677 -138.2216 24.9997 178.0289 -143.3522 61.4836 170.6810 -0.4485 -15.3657 -17.4986 -91.5482 34.1256 -105.9657 1.7110 -2.5254 -110.1611 0.0670 -0.2625 0.3960 -2.0778 4.2781 36.8611 -102.2388 -28.0316 86.9421 -5.9752 -3.5993 122.7911 0.2572 0.1393 0.3968 -59.0579 15.1989 113.9604 -2.2841 41.4430 0.3530 -4.0007 -16.2393 -1.6462 10.3143 -21.2454 26.5347 -12.4849 -12.1696 75.8739 4.7714 55.9211 5.8658 -5.5313 -14.7098 0.3279 1.3793 -23.6206 -23.0618 
0.0000 93.1000 0.0000 29.9625 -62.7385 -59.8986 -71.1026 -0.0711 88.3399 92.3144 65.9245 -5.2385 2.7084 12.9925 10.5819 -139.1371 25.6994 179.8472 -147.6889 63.2655 174.8555 -0.5044 -16.0272 -18.7062 -94.6160 35.2197 -106.7750 1.5961 -2.2716 -111.1097 -0.1504 0.0192 0.4096 -1.5731 4.7609 33.4603 -106.0315 -29.0019 86.9559 -4.8809 -2.9295 121.5746 0.3637 -0.2319 -0.0203 -59.5398 14.3143 114.8180 -2.1357 40.0595 0.6722 -4.2153 -15.2639 -1.9666 10.8987 -22.6040 25.1968 -15.3219 -16.2256 72.1340 4.3401 52.4509 7.8950 -4.1660 -13.2744 0.5290 0.5972 -24.9201 -20.8851 
0.0000 93.1000 0.0000 36.8363 -61.0533 -52.9726 -71.2546 -0.0668 88.2913 91.3119 66.6941 -2.9667 2.8914 13.7231 9.8106 -137.2815 25.7161 178.8819 -149.7726 64.3278 176.4942 -0.6909 -15.5391 -18.1029 -92.8390 37.0312 -109.6141 2.0677 -2.3373 -110.9705 -0.3266 -0.2099 0.8658 -1.2414 4.7333 33.1169 -108.9542 -28.5059 87.8492 -3.0706 -1.9368 120.6471 -0.2696 0.2440 0.1017 -59.1777 12.3984 113.9523 -2.4170 37.3066 1.2764 -4.2589 -15.9202 -1.6947 11.0594 -22.2081 25.3755 -19.1048 -19.4570 68.1208 4.0315 48.3649 10.4041 -3.0110 -10.3438 -0.0909 1.3912 -23.8920 -19.9166 
0.0000 93.1000 0.0000 41.9487 -59.1626 -46.4455 -71.1560 -0.0292 88.2422 88.4110 66.7440 0.8524 3.0650 14.4156 8.7728 -135.3120 25.9050 176.0904 -146.9348 64.6695 175.7766 -0.7003 -15.0987 -17.7288 -93.5989 36.4110 -110.0681 2.0468 -2.1173 -111.0835 0.1487 -0.2619 0.5221 -1.0643 4.7927 32.3359 -111.9464 -28.1815 86.9718 -1.4748 -1.0259 119.6223 -0.2844 -0.1234 -0.0256 -58.2553 10.3791 110.9634 -2.5489 35.3392 -0.6016 -3.6898 -17.0229 -1.8864 10.9341 -22.5585 27.2924 -21.1979 -22.1420 64.0005 2.9350 44.9970 10.9304 0.1867 -6.3638 -0.2366 2.1390 -22.9454 -18.8734 
0.0000 93.1000 0.0000 47.0244 -57.8614 -41.0359 -71.0889 -0.1521 88.1969 89.6837 66.7436 -0.0508 2.8245 14.3912 8.5430 -134.4976 25.6390 175.8785 -146.5809 64.6122 175.6552 -0.5165 -14.2512 -17.9220 -93.0366 36.5566 -112.4987 1.9767 -1.2608 -110.0832 -0.1643 -0.2695 0.2737 -1.0459 4.0792 31.4623 -114.1165 -27.1991 86.9217 -2.0702 -1.0482 118.6794 0.0495 0.0161 0.0222 -58.1422 9.2720 108.1000 -2.5742 35.1268 -2.8580 -3.2259 -18.7060 -1.9336 9.8353 -21.2192 27.6999 -23.3087 -24.4364 64.0690 3.1233 42.8144 10.1320 3.5734 -4.5773 -0.4210 2.1844 -21.2154 -13.9875 
